<svg width="24" height="24" viewBox="0 0 24 24" fill="none" xmlns="http://www.w3.org/2000/svg">
<mask id="mask0_26_16" style="mask-type:alpha" maskUnits="userSpaceOnUse" x="0" y="0" width="24" height="24">
<rect width="24" height="24" fill="#D9D9D9"/>
</mask>
<g mask="url(#mask0_26_16)">
<path d="M19 11.95C19 10 18.3207 8.34568 16.962 6.98701C15.604 5.62901 13.95 4.95001 12 4.95001V2.95001C13.25 2.95001 14.421 3.18735 15.513 3.66201C16.6043 4.13735 17.5543 4.77935 18.363 5.58801C19.171 6.39601 19.8127 7.34601 20.288 8.43801C20.7627 9.52935 21 10.7 21 11.95H19ZM15 11.95C15 11.1167 14.7083 10.4083 14.125 9.82501C13.5417 9.24168 12.8333 8.95001 12 8.95001V6.95001C13.3833 6.95001 14.5627 7.43735 15.538 8.41201C16.5127 9.38735 17 10.5667 17 11.95H15ZM19.95 21C17.8 21 15.7043 20.5207 13.663 19.562C11.621 18.604 9.81267 17.3373 8.238 15.762C6.66267 14.1873 5.396 12.379 4.438 10.337C3.47933 8.29568 3 6.20001 3 4.05001C3 3.75001 3.1 3.50001 3.3 3.30001C3.5 3.10001 3.75 3.00001 4.05 3.00001H8.1C8.33333 3.00001 8.54167 3.07501 8.725 3.22501C8.90833 3.37501 9.01667 3.56668 9.05 3.80001L9.7 7.30001C9.73333 7.53335 9.72933 7.74568 9.688 7.93701C9.646 8.12901 9.55 8.30001 9.4 8.45001L7 10.9C7.7 12.1 8.575 13.225 9.625 14.275C10.675 15.325 11.8333 16.2333 13.1 17L15.45 14.65C15.6 14.5 15.796 14.3873 16.038 14.312C16.2793 14.2373 16.5167 14.2167 16.75 14.25L20.2 14.95C20.4333 15 20.625 15.1123 20.775 15.287C20.925 15.4623 21 15.6667 21 15.9V19.95C21 20.25 20.9 20.5 20.7 20.7C20.5 20.9 20.25 21 19.95 21Z" fill="white"/>
</g>
</svg>
