<svg width="24" height="24" viewBox="0 0 24 24" fill="none" xmlns="http://www.w3.org/2000/svg">
<mask id="mask0_2_120" style="mask-type:alpha" maskUnits="userSpaceOnUse" x="0" y="0" width="24" height="24">
<rect width="24" height="24" fill="#D9D9D9"/>
</mask>
<g mask="url(#mask0_2_120)">
<path d="M6 23C5.16667 23 4.45833 22.7083 3.875 22.125C3.29167 21.5417 3 20.8333 3 20C3 19.1667 3.29167 18.4583 3.875 17.875C4.45833 17.2917 5.16667 17 6 17C6.23333 17 6.45 17.025 6.65 17.075C6.85 17.125 7.04167 17.1917 7.225 17.275L8.65 15.5C8.18333 14.9833 7.85833 14.4 7.675 13.75C7.49167 13.1 7.45 12.45 7.55 11.8L5.525 11.125C5.24167 11.5417 4.88333 11.875 4.45 12.125C4.01667 12.375 3.53333 12.5 3 12.5C2.16667 12.5 1.45833 12.2083 0.875 11.625C0.291667 11.0417 0 10.3333 0 9.5C0 8.66667 0.291667 7.95833 0.875 7.375C1.45833 6.79167 2.16667 6.5 3 6.5C3.83333 6.5 4.54167 6.79167 5.125 7.375C5.70833 7.95833 6 8.66667 6 9.5V9.7L8.025 10.4C8.35833 9.8 8.80433 9.29167 9.363 8.875C9.921 8.45833 10.55 8.19167 11.25 8.075V5.9C10.6 5.71667 10.0623 5.36233 9.637 4.837C9.21233 4.31233 9 3.7 9 3C9 2.16667 9.29167 1.45833 9.875 0.875C10.4583 0.291667 11.1667 0 12 0C12.8333 0 13.5417 0.291667 14.125 0.875C14.7083 1.45833 15 2.16667 15 3C15 3.7 14.7833 4.31233 14.35 4.837C13.9167 5.36233 13.3833 5.71667 12.75 5.9V8.075C13.45 8.19167 14.0793 8.45833 14.638 8.875C15.196 9.29167 15.6417 9.8 15.975 10.4L18 9.7V9.5C18 8.66667 18.2917 7.95833 18.875 7.375C19.4583 6.79167 20.1667 6.5 21 6.5C21.8333 6.5 22.5417 6.79167 23.125 7.375C23.7083 7.95833 24 8.66667 24 9.5C24 10.3333 23.7083 11.0417 23.125 11.625C22.5417 12.2083 21.8333 12.5 21 12.5C20.4667 12.5 19.9793 12.375 19.538 12.125C19.096 11.875 18.7417 11.5417 18.475 11.125L16.45 11.8C16.55 12.45 16.5083 13.0957 16.325 13.737C16.1417 14.379 15.8167 14.9667 15.35 15.5L16.775 17.25C16.9583 17.1667 17.15 17.104 17.35 17.062C17.55 17.0207 17.7667 17 18 17C18.8333 17 19.5417 17.2917 20.125 17.875C20.7083 18.4583 21 19.1667 21 20C21 20.8333 20.7083 21.5417 20.125 22.125C19.5417 22.7083 18.8333 23 18 23C17.1667 23 16.4583 22.7083 15.875 22.125C15.2917 21.5417 15 20.8333 15 20C15 19.6667 15.0543 19.346 15.163 19.038C15.271 18.7293 15.4167 18.45 15.6 18.2L14.175 16.425C13.4917 16.8083 12.7627 17 11.988 17C11.2127 17 10.4833 16.8083 9.8 16.425L8.4 18.2C8.58333 18.45 8.72933 18.7293 8.838 19.038C8.946 19.346 9 19.6667 9 20C9 20.8333 8.70833 21.5417 8.125 22.125C7.54167 22.7083 6.83333 23 6 23Z" fill="#1C1B1F"/>
</g>
</svg>
