<svg width="24" height="24" viewBox="0 0 24 24" fill="none" xmlns="http://www.w3.org/2000/svg">
<mask id="mask0_2_106" style="mask-type:alpha" maskUnits="userSpaceOnUse" x="0" y="0" width="24" height="24">
<rect width="24" height="24" fill="#D9D9D9"/>
</mask>
<g mask="url(#mask0_2_106)">
<path d="M6.5 14.975V13.975H4V11.975H9V9.97501H5C4.71667 9.97501 4.479 9.87934 4.287 9.68801C4.09567 9.49601 4 9.25834 4 8.97501V4.97501C4 4.69167 4.09567 4.45401 4.287 4.26201C4.479 4.07067 4.71667 3.97501 5 3.97501H6.5V2.97501H8.5V3.97501H11V5.97501H6V7.97501H10C10.2833 7.97501 10.521 8.07067 10.713 8.26201C10.9043 8.45401 11 8.69167 11 8.97501V12.975C11 13.2583 10.9043 13.496 10.713 13.688C10.521 13.8793 10.2833 13.975 10 13.975H8.5V14.975H6.5ZM13.95 20.975L9.7 16.725L11.1 15.325L13.95 18.175L19.6 12.525L21 13.925L13.95 20.975Z" fill="white"/>
</g>
</svg>
