<svg width="24" height="24" viewBox="0 0 24 24" fill="none" xmlns="http://www.w3.org/2000/svg">
<mask id="mask0_2_215" style="mask-type:alpha" maskUnits="userSpaceOnUse" x="0" y="0" width="24" height="24">
<rect width="24" height="24" fill="#D9D9D9"/>
</mask>
<g mask="url(#mask0_2_215)">
<path d="M0.95 13.3C0.65 12.7 0.416667 12.0917 0.25 11.475C0.0833333 10.8583 0 10.2333 0 9.6C0 7.73333 0.633333 6.16667 1.9 4.9C3.16667 3.63333 4.73333 3 6.6 3C7.65 3 8.65 3.22067 9.6 3.662C10.55 4.104 11.35 4.71667 12 5.5C12.65 4.71667 13.45 4.104 14.4 3.662C15.35 3.22067 16.35 3 17.4 3C19.2667 3 20.8333 3.63333 22.1 4.9C23.3667 6.16667 24 7.73333 24 9.6C24 10.2333 23.9167 10.8583 23.75 11.475C23.5833 12.0917 23.35 12.7 23.05 13.3C22.8667 12.9833 22.65 12.7 22.4 12.45C22.15 12.2 21.8583 12 21.525 11.85C21.675 11.4667 21.7917 11.0917 21.875 10.725C21.9583 10.3583 22 9.98333 22 9.6C22 8.3 21.5583 7.20833 20.675 6.325C19.7917 5.44167 18.7 5 17.4 5C16.05 5 15.0127 5.37067 14.288 6.112C13.5627 6.854 12.8 7.68333 12 8.6C11.2 7.66667 10.4377 6.83333 9.713 6.1C8.98767 5.36667 7.95 5 6.6 5C5.3 5 4.20833 5.44167 3.325 6.325C2.44167 7.20833 2 8.3 2 9.6C2 9.98333 2.04167 10.3583 2.125 10.725C2.20833 11.0917 2.325 11.4667 2.475 11.85C2.14167 12 1.85 12.2 1.6 12.45C1.35 12.7 1.13333 12.9833 0.95 13.3ZM0 22V20.425C0 19.6917 0.371 19.1043 1.113 18.663C1.85433 18.221 2.81667 18 4 18C4.21667 18 4.425 18.004 4.625 18.012C4.825 18.0207 5.01667 18.0417 5.2 18.075C4.96667 18.4083 4.79167 18.7667 4.675 19.15C4.55833 19.5333 4.5 19.9417 4.5 20.375V22H0ZM6 22V20.375C6 19.2917 6.55433 18.4167 7.663 17.75C8.771 17.0833 10.2167 16.75 12 16.75C13.8 16.75 15.25 17.0833 16.35 17.75C17.45 18.4167 18 19.2917 18 20.375V22H6ZM19.5 22V20.375C19.5 19.9417 19.4457 19.5333 19.337 19.15C19.229 18.7667 19.0667 18.4083 18.85 18.075C19.0333 18.0417 19.221 18.0207 19.413 18.012C19.6043 18.004 19.8 18 20 18C21.2 18 22.1667 18.221 22.9 18.663C23.6333 19.1043 24 19.6917 24 20.425V22H19.5ZM4 17C3.45 17 2.97933 16.8043 2.588 16.413C2.196 16.021 2 15.55 2 15C2 14.4333 2.196 13.9583 2.588 13.575C2.97933 13.1917 3.45 13 4 13C4.56667 13 5.04167 13.1917 5.425 13.575C5.80833 13.9583 6 14.4333 6 15C6 15.55 5.80833 16.021 5.425 16.413C5.04167 16.8043 4.56667 17 4 17ZM20 17C19.45 17 18.979 16.8043 18.587 16.413C18.1957 16.021 18 15.55 18 15C18 14.4333 18.1957 13.9583 18.587 13.575C18.979 13.1917 19.45 13 20 13C20.5667 13 21.0417 13.1917 21.425 13.575C21.8083 13.9583 22 14.4333 22 15C22 15.55 21.8083 16.021 21.425 16.413C21.0417 16.8043 20.5667 17 20 17ZM12 16C11.1667 16 10.4583 15.7083 9.875 15.125C9.29167 14.5417 9 13.8333 9 13C9 12.15 9.29167 11.4377 9.875 10.863C10.4583 10.2877 11.1667 10 12 10C12.85 10 13.5623 10.2877 14.137 10.863C14.7123 11.4377 15 12.15 15 13C15 13.8333 14.7123 14.5417 14.137 15.125C13.5623 15.7083 12.85 16 12 16Z" fill="white"/>
</g>
</svg>
