<svg width="24" height="24" viewBox="0 0 24 24" fill="none" xmlns="http://www.w3.org/2000/svg">
<mask id="mask0_2_239" style="mask-type:alpha" maskUnits="userSpaceOnUse" x="0" y="0" width="24" height="24">
<rect width="24" height="24" fill="#D9D9D9"/>
</mask>
<g mask="url(#mask0_2_239)">
<path d="M12.7 14.05L18.35 8.4L16.95 6.95L12.7 11.2L10.55 9.1L9.15 10.5L12.7 14.05ZM8 18C7.45 18 6.97933 17.8043 6.588 17.413C6.196 17.021 6 16.55 6 16V4C6 3.45 6.196 2.979 6.588 2.587C6.97933 2.19567 7.45 2 8 2H20C20.55 2 21.021 2.19567 21.413 2.587C21.8043 2.979 22 3.45 22 4V16C22 16.55 21.8043 17.021 21.413 17.413C21.021 17.8043 20.55 18 20 18H8ZM4 22C3.45 22 2.97933 21.8043 2.588 21.413C2.196 21.021 2 20.55 2 20V6H4V20H18V22H4Z" fill="white"/>
</g>
</svg>
