<svg width="24" height="24" viewBox="0 0 24 24" fill="none" xmlns="http://www.w3.org/2000/svg">
<mask id="mask0_2_254" style="mask-type:alpha" maskUnits="userSpaceOnUse" x="0" y="0" width="24" height="24">
<rect width="24" height="24" fill="#D9D9D9"/>
</mask>
<g mask="url(#mask0_2_254)">
<path d="M12 12.95V3.95001C12 3.66668 12.096 3.42901 12.288 3.23701C12.4793 3.04568 12.7167 2.95001 13 2.95001H20C20.2833 2.95001 20.5207 3.04568 20.712 3.23701C20.904 3.42901 21 3.66668 21 3.95001V8.95001C21 9.23335 20.904 9.47068 20.712 9.66201C20.5207 9.85401 20.2833 9.95001 20 9.95001H15L12 12.95ZM14 7.95001H19V4.95001H14V7.95001ZM19.95 21C17.8 21 15.7043 20.5207 13.663 19.562C11.621 18.604 9.81267 17.3373 8.238 15.762C6.66267 14.1873 5.396 12.379 4.438 10.337C3.47933 8.29568 3 6.20001 3 4.05001C3 3.75001 3.1 3.50001 3.3 3.30001C3.5 3.10001 3.75 3.00001 4.05 3.00001H8.1C8.33333 3.00001 8.54167 3.07501 8.725 3.22501C8.90833 3.37501 9.01667 3.56668 9.05 3.80001L9.7 7.30001C9.73333 7.53335 9.72933 7.74568 9.688 7.93701C9.646 8.12901 9.55 8.30001 9.4 8.45001L7 10.9C7.7 12.1 8.575 13.225 9.625 14.275C10.675 15.325 11.8333 16.2333 13.1 17L15.45 14.65C15.6 14.5 15.796 14.3873 16.038 14.312C16.2793 14.2373 16.5167 14.2167 16.75 14.25L20.2 14.95C20.4333 15 20.625 15.1123 20.775 15.287C20.925 15.4623 21 15.6667 21 15.9V19.95C21 20.25 20.9 20.5 20.7 20.7C20.5 20.9 20.25 21 19.95 21ZM6.05 9.00001L7.7 7.35001L7.25 5.00001H5.05C5.13333 5.68335 5.25 6.35835 5.4 7.02501C5.55 7.69168 5.76667 8.35001 6.05 9.00001ZM19 18.95V16.75L16.65 16.25L15 17.9C15.65 18.1833 16.3083 18.4167 16.975 18.6C17.6417 18.7833 18.3167 18.9 19 18.95Z" fill="#1C1B1F"/>
</g>
</svg>
