<svg width="24" height="24" viewBox="0 0 24 24" fill="none" xmlns="http://www.w3.org/2000/svg">
<mask id="mask0_1_113" style="mask-type:alpha" maskUnits="userSpaceOnUse" x="0" y="0" width="24" height="24">
<rect width="24" height="24" fill="#D9D9D9"/>
</mask>
<g mask="url(#mask0_1_113)">
<path d="M12 22C10.6333 22 9.34167 21.7373 8.125 21.212C6.90833 20.6873 5.846 19.9707 4.938 19.062C4.02933 18.154 3.31267 17.0917 2.788 15.875C2.26267 14.6583 2 13.3667 2 12C2 10.6167 2.26267 9.31667 2.788 8.1C3.31267 6.88333 4.02933 5.825 4.938 4.925C5.846 4.025 6.90833 3.31233 8.125 2.787C9.34167 2.26233 10.6333 2 12 2C13.3833 2 14.6833 2.26233 15.9 2.787C17.1167 3.31233 18.175 4.025 19.075 4.925C19.975 5.825 20.6873 6.88333 21.212 8.1C21.7373 9.31667 22 10.6167 22 12C22 13.3667 21.7373 14.6583 21.212 15.875C20.6873 17.0917 19.975 18.154 19.075 19.062C18.175 19.9707 17.1167 20.6873 15.9 21.212C14.6833 21.7373 13.3833 22 12 22ZM12 20C14.2333 20 16.1293 19.2167 17.688 17.65C19.246 16.0833 20.0167 14.1833 20 11.95C18.8167 11.8333 17.9083 11.4623 17.275 10.837C16.6417 10.2123 16.1 9.45 15.65 8.55C15.5667 8.36667 15.446 8.229 15.288 8.137C15.1293 8.04567 14.9583 8 14.775 8H9.25C9.05 8 8.871 8.04567 8.713 8.137C8.55433 8.229 8.43333 8.36667 8.35 8.55C7.9 9.46667 7.35 10.2373 6.7 10.862C6.05 11.4873 5.15 11.8583 4 11.975C4 14.2083 4.77933 16.1043 6.338 17.663C7.896 19.221 9.78333 20 12 20ZM9 14.25C8.65 14.25 8.35433 14.129 8.113 13.887C7.871 13.6457 7.75 13.35 7.75 13C7.75 12.65 7.871 12.3543 8.113 12.113C8.35433 11.871 8.65 11.75 9 11.75C9.35 11.75 9.64567 11.871 9.887 12.113C10.129 12.3543 10.25 12.65 10.25 13C10.25 13.35 10.129 13.6457 9.887 13.887C9.64567 14.129 9.35 14.25 9 14.25ZM15 14.25C14.65 14.25 14.3543 14.129 14.113 13.887C13.871 13.6457 13.75 13.35 13.75 13C13.75 12.65 13.871 12.3543 14.113 12.113C14.3543 11.871 14.65 11.75 15 11.75C15.35 11.75 15.6457 11.871 15.887 12.113C16.129 12.3543 16.25 12.65 16.25 13C16.25 13.35 16.129 13.6457 15.887 13.887C15.6457 14.129 15.35 14.25 15 14.25Z" fill="#1C1B1F"/>
</g>
</svg>
