<svg width="24" height="24" viewBox="0 0 24 24" fill="none" xmlns="http://www.w3.org/2000/svg">
<mask id="mask0_1_22" style="mask-type:alpha" maskUnits="userSpaceOnUse" x="0" y="0" width="24" height="24">
<rect width="24" height="24" fill="#D9D9D9"/>
</mask>
<g mask="url(#mask0_1_22)">
<path d="M14.95 16L10.7 11.75L12.1 10.35L14.95 13.2L20.6 7.55L22 8.95L14.95 16ZM6 23C5.45 23 4.97933 22.8043 4.588 22.413C4.196 22.021 4 21.55 4 21V3C4 2.45 4.196 1.979 4.588 1.587C4.97933 1.19567 5.45 1 6 1H16C16.55 1 17.021 1.19567 17.413 1.587C17.8043 1.979 18 2.45 18 3V7H16V6H6V18H16V17H18V21C18 21.55 17.8043 22.021 17.413 22.413C17.021 22.8043 16.55 23 16 23H6Z" fill="#1C1B1F"/>
</g>
</svg>
